<svg width="280" height="280" viewBox="0 0 280 280" fill="none" xmlns="http://www.w3.org/2000/svg">
<g clip-path="url(#clip0_53_951)">
<path d="M185.714 108.571H117.143C116.385 108.571 115.658 108.27 115.123 107.735C114.587 107.199 114.286 106.472 114.286 105.714C114.286 104.957 114.587 104.23 115.123 103.694C115.658 103.158 116.385 102.857 117.143 102.857H185.714C186.472 102.857 187.199 103.158 187.735 103.694C188.27 104.23 188.571 104.957 188.571 105.714C188.571 106.472 188.27 107.199 187.735 107.735C187.199 108.27 186.472 108.571 185.714 108.571Z" fill="#FFFFF2"/>
<path d="M277.143 108.571H197.143C196.385 108.571 195.658 108.27 195.123 107.735C194.587 107.199 194.286 106.472 194.286 105.714C194.286 104.957 194.587 104.23 195.123 103.694C195.658 103.158 196.385 102.857 197.143 102.857H277.143C277.901 102.857 278.627 103.158 279.163 103.694C279.699 104.23 280 104.957 280 105.714C280 106.472 279.699 107.199 279.163 107.735C278.627 108.27 277.901 108.571 277.143 108.571Z" fill="#FFFFF2"/>
<path d="M8.57138 120C7.81362 120 7.08689 119.699 6.55107 119.163C6.01526 118.627 5.71424 117.901 5.71424 117.143V65.7143C5.71357 65.3388 5.7869 64.9669 5.93006 64.6198C6.07321 64.2727 6.28337 63.9573 6.54852 63.6914L29.4057 40.8343C29.9422 40.2978 30.6698 39.9964 31.4285 39.9964C32.1872 39.9964 32.9149 40.2978 33.4514 40.8343C33.9879 41.3708 34.2893 42.0984 34.2893 42.8571C34.2893 43.6159 33.9879 44.3435 33.4514 44.88L11.4285 66.8972V117.143C11.4285 117.901 11.1275 118.627 10.5917 119.163C10.0559 119.699 9.32914 120 8.57138 120Z" fill="#FFFFF2"/>
<path d="M122.857 120H77.1429C76.3851 120 75.6584 119.699 75.1226 119.163C74.5868 118.627 74.2858 117.901 74.2858 117.143V65.7143C74.2858 64.9565 74.5868 64.2298 75.1226 63.694C75.6584 63.1582 76.3851 62.8571 77.1429 62.8571C77.9007 62.8571 78.6274 63.1582 79.1632 63.694C79.699 64.2298 80.0001 64.9565 80.0001 65.7143V114.286H120V65.7143C120 64.9565 120.301 64.2298 120.837 63.694C121.373 63.1582 122.099 62.8571 122.857 62.8571C123.615 62.8571 124.342 63.1582 124.877 63.694C125.413 64.2298 125.714 64.9565 125.714 65.7143V117.143C125.714 117.901 125.413 118.627 124.877 119.163C124.342 119.699 123.615 120 122.857 120Z" fill="#FFFFF2"/>
<path d="M116.297 157.714C115.818 157.715 115.346 157.595 114.926 157.366C80.1925 137.922 42.0868 125.243 2.62857 120C2.25336 119.985 1.88478 119.896 1.54388 119.739C1.20298 119.581 0.896432 119.358 0.641735 119.082C0.387037 118.806 0.189178 118.483 0.0594591 118.131C-0.07026 117.778 -0.1293 117.404 -0.114292 117.029C-0.099284 116.653 -0.0105206 116.285 0.14693 115.944C0.304381 115.603 0.527435 115.296 0.803358 115.042C1.07928 114.787 1.40267 114.589 1.75506 114.459C2.10744 114.33 2.48193 114.271 2.85714 114.286C64 114.286 115.2 121.549 155 135.886C155.369 135.999 155.712 136.187 156.006 136.437C156.301 136.686 156.542 136.993 156.715 137.339C156.888 137.685 156.988 138.062 157.011 138.447C157.034 138.833 156.978 139.219 156.848 139.583C156.717 139.947 156.514 140.28 156.251 140.563C155.987 140.846 155.67 141.072 155.316 141.229C154.963 141.385 154.582 141.468 154.195 141.473C153.809 141.478 153.426 141.405 153.069 141.257C115.838 128.896 77.006 122.02 37.7943 120.846C65.6164 128.002 92.4439 138.579 117.663 152.337C118.22 152.641 118.66 153.122 118.914 153.704C119.168 154.285 119.221 154.935 119.064 155.55C118.908 156.166 118.551 156.711 118.05 157.101C117.548 157.491 116.932 157.702 116.297 157.703V157.714Z" fill="#FFFFF2"/>
<path d="M47.6062 204.509C47.019 204.508 46.4462 204.327 45.9656 203.99C45.4851 203.652 45.1202 203.175 44.9205 202.623C33.7184 172.904 18.7937 144.725 0.50337 118.76C0.159495 118.259 -0.0156134 117.661 0.00348715 117.054C0.0225878 116.446 0.234904 115.861 0.609583 115.382C0.984262 114.904 1.50178 114.557 2.08693 114.393C2.67208 114.228 3.29437 114.255 3.86337 114.469C5.4748 115.074 43.8634 129.771 86.7777 171.657C87.3195 172.188 87.6284 172.912 87.6364 173.67C87.6444 174.428 87.3509 175.158 86.8205 175.7C86.2901 176.242 85.5661 176.551 84.808 176.559C84.0498 176.567 83.3195 176.273 82.7777 175.743C61.6412 154.794 37.357 137.281 10.8062 123.84C26.9108 147.83 40.1604 173.618 50.2862 200.68C50.5435 201.392 50.5075 202.178 50.1861 202.863C49.8646 203.549 49.284 204.079 48.5719 204.337C48.263 204.452 47.9358 204.51 47.6062 204.509Z" fill="#FFFFF2"/>
<path d="M2.8574 251.429C2.33524 251.428 1.8231 251.285 1.37662 251.014C0.930143 250.744 0.566399 250.356 0.324907 249.893C0.083414 249.43 -0.0265924 248.91 0.00683984 248.389C0.0402721 247.867 0.215866 247.365 0.514541 246.937C56.1914 176.762 136.638 130.584 225.315 117.897C225.689 117.838 226.072 117.853 226.441 117.943C226.809 118.033 227.156 118.195 227.461 118.421C227.766 118.646 228.024 118.93 228.218 119.256C228.412 119.582 228.539 119.943 228.593 120.319C228.646 120.694 228.623 121.077 228.527 121.444C228.431 121.811 228.263 122.155 228.032 122.456C227.801 122.757 227.513 123.009 227.184 123.198C226.854 123.387 226.491 123.508 226.115 123.554C138.988 135.963 59.9296 181.288 5.20025 250.206C4.93706 250.583 4.58661 250.891 4.17871 251.104C3.77081 251.317 3.31752 251.428 2.8574 251.429Z" fill="#FFFFF2"/>
<path d="M248.571 121.086C247.814 121.114 247.076 120.84 246.52 120.324C245.964 119.808 245.637 119.092 245.609 118.334C245.58 117.577 245.855 116.839 246.371 116.283C246.887 115.727 247.602 115.399 248.36 115.371C257.829 114.64 267.514 114.274 277.149 114.274C277.906 114.274 278.633 114.575 279.169 115.111C279.705 115.647 280.006 116.374 280.006 117.131C280.006 117.889 279.705 118.616 279.169 119.152C278.633 119.688 277.906 119.989 277.149 119.989C267.663 119.989 258.126 120.349 248.794 121.069L248.571 121.086Z" fill="#FFFFF2"/>
<path d="M2.85715 262.857C2.09939 262.857 1.37266 262.556 0.836843 262.02C0.301025 261.484 4.55712e-06 260.758 4.55712e-06 260V254.286C-0.000665998 253.91 0.0726712 253.538 0.215824 253.191C0.358976 252.844 0.569137 252.529 0.83429 252.263C1.87429 251.229 106.509 148.571 277.143 148.571C277.901 148.571 278.627 148.872 279.163 149.408C279.699 149.944 280 150.671 280 151.429V191.429C280 192.186 279.699 192.913 279.163 193.449C278.627 193.985 277.901 194.286 277.143 194.286C114.246 194.286 5.46286 261.714 4.38286 262.417C3.92608 262.705 3.39708 262.858 2.85715 262.857ZM274.286 154.286C121.223 155.331 22.7486 239.823 7.06858 254.229C31.5486 240.514 132.377 189.257 274.286 188.571V154.286Z" fill="#FFFFF2"/>
<path d="M2.85717 268.571C2.16029 268.571 1.4877 268.315 0.966005 267.853C0.444307 267.391 0.109466 266.754 0.0244973 266.063C-0.0604718 265.371 0.110291 264.672 0.504648 264.097C0.899004 263.523 1.48976 263.112 2.16575 262.943C45.6496 252.716 89.6192 244.678 133.909 238.857C134.285 238.798 134.669 238.816 135.038 238.907C135.407 238.999 135.754 239.164 136.059 239.392C136.364 239.619 136.62 239.906 136.813 240.234C137.006 240.562 137.131 240.926 137.181 241.303C137.231 241.68 137.206 242.064 137.106 242.431C137.006 242.798 136.833 243.141 136.599 243.441C136.364 243.741 136.072 243.991 135.74 244.176C135.407 244.361 135.041 244.478 134.663 244.52C90.5853 250.304 46.8256 258.295 3.5486 268.463C3.32336 268.527 3.09119 268.563 2.85717 268.571Z" fill="#FFFFF2"/>
<path d="M157.143 241.714C156.385 241.757 155.641 241.498 155.075 240.993C154.508 240.487 154.166 239.778 154.123 239.02C154.08 238.262 154.339 237.518 154.844 236.952C155.35 236.386 156.059 236.043 156.817 236C196.752 231.235 236.926 228.755 277.143 228.571C277.901 228.571 278.627 228.872 279.163 229.408C279.699 229.944 280 230.671 280 231.429C280 232.186 279.699 232.913 279.163 233.449C278.627 233.985 277.901 234.286 277.143 234.286C237.144 234.483 197.19 236.963 157.474 241.714C157.364 241.723 157.253 241.723 157.143 241.714Z" fill="#FFFFF2"/>
<path d="M134.286 80C133.91 80.0007 133.538 79.9273 133.191 79.7842C132.844 79.641 132.529 79.4309 132.263 79.1657L115.12 62.0229C114.584 61.4864 114.282 60.7587 114.282 60C114.282 59.2413 114.584 58.5136 115.12 57.9771C115.656 57.4406 116.384 57.1393 117.143 57.1393C117.902 57.1393 118.629 57.4406 119.166 57.9771L136.309 75.12C136.709 75.5196 136.982 76.0291 137.093 76.5841C137.203 77.139 137.147 77.7142 136.93 78.2369C136.714 78.7596 136.347 79.2062 135.876 79.5201C135.405 79.834 134.852 80.001 134.286 80Z" fill="#FFFFF2"/>
<path d="M65.7143 80C65.1485 80.001 64.5951 79.834 64.1243 79.5201C63.6535 79.2062 63.2865 78.7596 63.0698 78.2369C62.8532 77.7142 62.7966 77.139 62.9072 76.584C63.0179 76.0291 63.2908 75.5196 63.6914 75.12L97.9772 40.8343C98.2426 40.5682 98.5579 40.3571 98.905 40.2131C99.2521 40.069 99.6242 39.9949 100 39.9949C100.376 39.9949 100.748 40.069 101.095 40.2131C101.442 40.3571 101.757 40.5682 102.023 40.8343L107.737 46.5486C108.274 47.0851 108.575 47.8127 108.575 48.5714C108.575 49.3301 108.274 50.0578 107.737 50.5943C107.201 51.1308 106.473 51.4322 105.714 51.4322C104.956 51.4322 104.228 51.1308 103.691 50.5943L100 46.8971L67.7372 79.1657C67.4713 79.4309 67.1559 79.641 66.8088 79.7842C66.4617 79.9273 66.0898 80.0007 65.7143 80Z" fill="#FFFFF2"/>
<path d="M77.1429 68.5714H8.57149C8.00565 68.5724 7.45226 68.4054 6.98147 68.0915C6.51067 67.7777 6.14367 67.3311 5.927 66.8084C5.71033 66.2857 5.65374 65.7104 5.76441 65.1555C5.87508 64.6006 6.14802 64.091 6.54863 63.6914L29.4058 40.8343C29.6716 40.5691 29.9871 40.359 30.3342 40.2158C30.6813 40.0727 31.0532 39.9993 31.4286 40H100C100.566 39.999 101.119 40.166 101.59 40.4799C102.061 40.7938 102.428 41.2404 102.645 41.7631C102.861 42.2858 102.918 42.861 102.807 43.4159C102.696 43.9709 102.424 44.4804 102.023 44.88L79.1658 67.7371C78.8999 68.0023 78.5845 68.2125 78.2374 68.3556C77.8903 68.4988 77.5184 68.5721 77.1429 68.5714ZM15.4686 62.8571H75.9601L93.1029 45.7143H32.6115L15.4686 62.8571Z" fill="#FFFFF2"/>
<path d="M111.429 120H88.5714C87.8136 120 87.0869 119.699 86.5511 119.163C86.0153 118.627 85.7142 117.901 85.7142 117.143V82.8571C85.7142 82.0994 86.0153 81.3727 86.5511 80.8368C87.0869 80.301 87.8136 80 88.5714 80H111.429C112.186 80 112.913 80.301 113.449 80.8368C113.985 81.3727 114.286 82.0994 114.286 82.8571V117.143C114.286 117.901 113.985 118.627 113.449 119.163C112.913 119.699 112.186 120 111.429 120ZM91.4285 114.286H108.571V85.7143H91.4285V114.286Z" fill="#FFFFF2"/>
<path d="M111.429 120C110.958 120 110.495 119.883 110.08 119.661C109.665 119.439 109.312 119.117 109.051 118.726L86.1943 84.44C85.9732 84.1282 85.8169 83.7752 85.7347 83.4018C85.6525 83.0285 85.646 82.6425 85.7157 82.2667C85.7854 81.8908 85.9298 81.5327 86.1403 81.2137C86.3508 80.8946 86.6233 80.6211 86.9415 80.4092C87.2596 80.1974 87.6171 80.0515 87.9926 79.9803C88.3682 79.9091 88.7542 79.9139 89.1279 79.9946C89.5015 80.0753 89.8552 80.2301 90.1679 80.4499C90.4807 80.6697 90.7461 80.95 90.9486 81.2743L113.806 115.56C114.225 116.191 114.377 116.962 114.228 117.704C114.079 118.447 113.642 119.1 113.011 119.52C112.544 119.834 111.992 120.002 111.429 120Z" fill="#FFFFF2"/>
<path d="M88.5714 120C88.0077 120.002 87.4564 119.834 86.9885 119.52C86.3583 119.1 85.9207 118.447 85.7718 117.704C85.6228 116.962 85.7748 116.191 86.1942 115.56L109.051 81.2743C109.254 80.95 109.519 80.6697 109.832 80.4499C110.145 80.2301 110.498 80.0753 110.872 79.9946C111.246 79.9139 111.632 79.9091 112.007 79.9803C112.383 80.0515 112.74 80.1974 113.059 80.4092C113.377 80.6211 113.649 80.8946 113.86 81.2137C114.07 81.5327 114.215 81.8908 114.284 82.2667C114.354 82.6425 114.347 83.0285 114.265 83.4018C114.183 83.7752 114.027 84.1282 113.806 84.44L90.9485 118.726C90.6879 119.117 90.3345 119.439 89.9198 119.661C89.5051 119.883 89.0419 120 88.5714 120Z" fill="#FFFFF2"/>
<path d="M37.1428 102.857H20C19.2422 102.857 18.5155 102.556 17.9797 102.02C17.4438 101.484 17.1428 100.758 17.1428 100V82.8571C17.1428 82.0994 17.4438 81.3727 17.9797 80.8368C18.5155 80.301 19.2422 80 20 80H37.1428C37.9006 80 38.6273 80.301 39.1631 80.8368C39.6989 81.3727 40 82.0994 40 82.8571V100C40 100.758 39.6989 101.484 39.1631 102.02C38.6273 102.556 37.9006 102.857 37.1428 102.857ZM22.8571 97.1429H34.2857V85.7143H22.8571V97.1429Z" fill="#FFFFF2"/>
<path d="M65.7142 102.857H48.5714C47.8136 102.857 47.0869 102.556 46.5511 102.02C46.0153 101.484 45.7142 100.758 45.7142 100V82.8571C45.7142 82.0994 46.0153 81.3727 46.5511 80.8368C47.0869 80.301 47.8136 80 48.5714 80H65.7142C66.472 80 67.1987 80.301 67.7345 80.8368C68.2704 81.3727 68.5714 82.0994 68.5714 82.8571V100C68.5714 100.758 68.2704 101.484 67.7345 102.02C67.1987 102.556 66.472 102.857 65.7142 102.857ZM51.4285 97.1429H62.8571V85.7143H51.4285V97.1429Z" fill="#FFFFF2"/>
<path d="M157.143 120H145.714C144.957 120 144.23 119.699 143.694 119.163C143.158 118.627 142.857 117.901 142.857 117.143C142.857 116.385 143.158 115.658 143.694 115.123C144.23 114.587 144.957 114.286 145.714 114.286H157.143C157.901 114.286 158.627 114.587 159.163 115.123C159.699 115.658 160 116.385 160 117.143C160 117.901 159.699 118.627 159.163 119.163C158.627 119.699 157.901 120 157.143 120Z" fill="#FFFFF2"/>
<path d="M237.143 85.7143C228.666 85.7143 220.38 83.2008 213.333 78.4916C206.285 73.7824 200.792 67.089 197.548 59.2579C194.304 51.4267 193.456 42.8096 195.109 34.4961C196.763 26.1827 200.845 18.5462 206.838 12.5526C212.832 6.55889 220.468 2.47714 228.782 0.823486C237.095 -0.830167 245.712 0.0185505 253.544 3.26231C261.375 6.50606 268.068 11.9992 272.777 19.047C277.486 26.0948 280 34.3808 280 42.8571C279.988 54.2198 275.469 65.1137 267.434 73.1484C259.399 81.183 248.506 85.7022 237.143 85.7143ZM237.143 5.71428C229.797 5.71428 222.615 7.89267 216.507 11.974C210.399 16.0553 205.639 21.8562 202.827 28.6432C200.016 35.4302 199.28 42.8983 200.714 50.1034C202.147 57.3084 205.684 63.9266 210.879 69.1211C216.073 74.3156 222.692 77.8532 229.897 79.2863C237.102 80.7195 244.57 79.9839 251.357 77.1727C258.144 74.3614 263.945 69.6007 268.026 63.4926C272.107 57.3845 274.286 50.2033 274.286 42.8571C274.274 33.01 270.356 23.5696 263.393 16.6065C256.43 9.64352 246.99 5.72638 237.143 5.71428Z" fill="#FFFFF2"/>
<path d="M185.714 68.5714H168.571C167.814 68.5714 167.087 68.2704 166.551 67.7346C166.015 67.1988 165.714 66.472 165.714 65.7143C165.714 64.9565 166.015 64.2298 166.551 63.694C167.087 63.1582 167.814 62.8571 168.571 62.8571H185.714C186.472 62.8571 187.199 63.1582 187.735 63.694C188.27 64.2298 188.571 64.9565 188.571 65.7143C188.571 66.472 188.27 67.1988 187.735 67.7346C187.199 68.2704 186.472 68.5714 185.714 68.5714Z" fill="#FFFFF2"/>
<path d="M149.897 51.4286C149.139 51.4286 148.413 51.1276 147.877 50.5917C147.341 50.0559 147.04 49.3292 147.04 48.5714C147.042 46.6828 146.42 44.8464 145.271 43.3474C144.122 41.8485 142.511 40.771 140.686 40.2823C138.862 39.7937 136.927 39.9212 135.183 40.6452C133.439 41.3691 131.982 42.6489 131.04 44.2857C130.658 44.9366 130.035 45.4101 129.305 45.603C128.576 45.7958 127.8 45.6923 127.147 45.3151C126.493 44.9378 126.016 44.3174 125.818 43.5893C125.62 42.8612 125.719 42.0844 126.091 41.4286C127.663 38.7025 130.09 36.5713 132.996 35.3661C135.903 34.1608 139.126 33.9488 142.165 34.763C145.205 35.5772 147.89 37.3721 149.805 39.869C151.719 42.3658 152.756 45.4249 152.754 48.5714C152.754 49.3292 152.453 50.0559 151.917 50.5917C151.382 51.1276 150.655 51.4286 149.897 51.4286Z" fill="#FFFFF2"/>
<path d="M149.897 51.4286C149.139 51.4286 148.413 51.1276 147.877 50.5917C147.341 50.0559 147.04 49.3292 147.04 48.5714C147.032 45.4208 148.066 42.356 149.981 39.854C151.896 37.352 154.584 35.5533 157.628 34.7377C160.671 33.9221 163.898 34.1355 166.808 35.3446C169.717 36.5536 172.145 38.6906 173.714 41.4229C173.921 41.748 174.06 42.1117 174.122 42.4919C174.185 42.8722 174.17 43.2611 174.078 43.6354C173.986 44.0097 173.82 44.3615 173.589 44.6698C173.358 44.9781 173.067 45.2364 172.733 45.4293C172.399 45.6221 172.03 45.7455 171.648 45.7919C171.265 45.8384 170.877 45.807 170.507 45.6996C170.137 45.5923 169.792 45.4112 169.494 45.1672C169.196 44.9232 168.95 44.6214 168.771 44.28C167.829 42.6432 166.373 41.3634 164.628 40.6395C162.884 39.9155 160.949 39.788 159.125 40.2766C157.301 40.7653 155.689 41.8428 154.54 43.3417C153.391 44.8406 152.769 46.6771 152.771 48.5657C152.772 48.9428 152.698 49.3164 152.554 49.6648C152.41 50.0133 152.198 50.3297 151.931 50.5958C151.663 50.8619 151.346 51.0726 150.997 51.2155C150.648 51.3584 150.274 51.4308 149.897 51.4286Z" fill="#FFFFF2"/>
<path d="M155.611 51.4286H144.183C143.425 51.4286 142.698 51.1276 142.163 50.5917C141.627 50.0559 141.326 49.3292 141.326 48.5714C141.326 47.8137 141.627 47.0869 142.163 46.5511C142.698 46.0153 143.425 45.7143 144.183 45.7143H155.611C156.369 45.7143 157.096 46.0153 157.632 46.5511C158.168 47.0869 158.469 47.8137 158.469 48.5714C158.469 49.3292 158.168 50.0559 157.632 50.5917C157.096 51.1276 156.369 51.4286 155.611 51.4286Z" fill="#FFFFF2"/>
<path d="M8.57143 108.571H2.85714C2.09938 108.571 1.37266 108.27 0.836838 107.735C0.30102 107.199 0 106.472 0 105.714C0 104.957 0.30102 104.23 0.836838 103.694C1.37266 103.158 2.09938 102.857 2.85714 102.857H8.57143C9.32919 102.857 10.0559 103.158 10.5917 103.694C11.1276 104.23 11.4286 104.957 11.4286 105.714C11.4286 106.472 11.1276 107.199 10.5917 107.735C10.0559 108.27 9.32919 108.571 8.57143 108.571Z" fill="#FFFFF2"/>
<path d="M128.571 120H2.85714C2.09938 120 1.37266 119.699 0.836838 119.163C0.30102 118.627 0 117.901 0 117.143C0 116.385 0.30102 115.658 0.836838 115.123C1.37266 114.587 2.09938 114.286 2.85714 114.286H128.571C129.329 114.286 130.056 114.587 130.592 115.123C131.128 115.658 131.429 116.385 131.429 117.143C131.429 117.901 131.128 118.627 130.592 119.163C130.056 119.699 129.329 120 128.571 120Z" fill="#FFFFF2"/>
<path d="M151.429 108.571C150.671 108.571 149.944 108.27 149.408 107.735C148.872 107.199 148.571 106.472 148.571 105.714V77.1428C148.571 76.3851 148.872 75.6584 149.408 75.1225C149.944 74.5867 150.671 74.2857 151.429 74.2857C152.186 74.2857 152.913 74.5867 153.449 75.1225C153.985 75.6584 154.286 76.3851 154.286 77.1428V105.714C154.286 106.472 153.985 107.199 153.449 107.735C152.913 108.27 152.186 108.571 151.429 108.571Z" fill="#FFFFF2"/>
<path d="M157.143 85.7143H145.714C144.957 85.7143 144.23 85.4133 143.694 84.8774C143.158 84.3416 142.857 83.6149 142.857 82.8571C142.857 82.0994 143.158 81.3727 143.694 80.8368C144.23 80.301 144.957 80 145.714 80H157.143C157.901 80 158.627 80.301 159.163 80.8368C159.699 81.3727 160 82.0994 160 82.8571C160 83.6149 159.699 84.3416 159.163 84.8774C158.627 85.4133 157.901 85.7143 157.143 85.7143Z" fill="#FFFFF2"/>
<path d="M277.143 280H2.85714C2.09938 280 1.37266 279.699 0.836838 279.163C0.30102 278.627 0 277.901 0 277.143C0 276.385 0.30102 275.658 0.836838 275.123C1.37266 274.587 2.09938 274.286 2.85714 274.286H277.143C277.901 274.286 278.627 274.587 279.163 275.123C279.699 275.658 280 276.385 280 277.143C280 277.901 279.699 278.627 279.163 279.163C278.627 279.699 277.901 280 277.143 280Z" fill="#FFFFF2"/>
</g>
<defs>
<clipPath id="clip0_53_951">
<rect width="280" height="280" fill="white"/>
</clipPath>
</defs>
</svg>
